<svg width="101" height="92" viewBox="0 0 101 92" fill="none" xmlns="http://www.w3.org/2000/svg">
<g filter="url(#filter0_d_2_32728)">
<path d="M35.702 71.154C36.2547 71.6516 36.8806 72.0612 37.5577 72.3686C37.7444 72.4589 37.9385 72.5447 38.1402 72.626C39.8165 73.3118 41.6232 73.6201 43.432 73.529H43.5223C44.3319 73.4854 45.1196 73.2502 45.8206 72.8427C46.3188 72.5402 46.6945 72.0718 46.8816 71.5198C46.9569 71.3042 47.0569 71.0982 47.1796 70.9057C47.5637 70.3353 48.0291 69.8241 48.5613 69.3886C49.7307 68.3636 51.3923 67.2439 53.2661 65.8983C58.3999 62.223 65.1411 56.868 67.9224 47.1287C70.5864 37.8093 68.97 25.3112 57.3343 21.4913L57.0634 21.4056C45.5226 17.7573 34.1488 23.311 30.5276 36.1341C27.0644 48.3929 33.8553 59.0217 34.9615 65.5145C35.1979 66.5864 35.1653 67.7002 34.8667 68.7565L34.8396 68.8513C34.6093 69.6685 34.975 70.4632 35.702 71.154Z" fill="#FFAE00"/>
<path opacity="0.75" d="M37.1334 74.5495C37.1334 74.5495 43.6578 47.8196 39.2555 45.6523C34.8532 43.485 34.2572 50.023 37.2101 51.8742C41.1835 54.3711 48.0918 55.2109 49.2161 50.5196C50.092 46.8669 45.5091 45.878 44.2854 49.6572C43.4592 52.2219 45.0033 54.5788 48.322 55.369C53.9389 56.701 57.8852 54.9175 56.1378 50.8538C55.1806 48.6278 52.2231 49.5669 51.5955 52.4025C50.9679 55.238 42.809 76.1886 42.809 76.1886" stroke="white" stroke-width="3.06" stroke-linecap="round" stroke-linejoin="round"/>
<path d="M37.6076 82.8756L37.156 82.7401C35.4056 82.2391 33.9257 81.0635 33.0418 79.4717C32.1578 77.88 31.9422 76.0023 32.4422 74.2516C32.4422 74.2516 33.8871 65.8713 34.9346 65.5146C35.9821 65.1579 48.3447 68.7204 48.6156 69.4248C48.8865 70.1292 46.1187 78.1572 46.1187 78.1572C45.8712 79.0268 45.4545 79.8391 44.8924 80.5473C44.3303 81.2555 43.6339 81.8457 42.8431 82.2841C42.0523 82.7225 41.1828 83.0004 40.2843 83.1019C39.3859 83.2034 38.4762 83.1265 37.6076 82.8756Z" fill="#3B3B4C"/>
<path d="M32.848 69.7058L32.8799 69.5143C32.9679 68.9854 33.468 68.6281 33.9969 68.7161L47.8041 71.0142C48.3329 71.1023 48.6903 71.6024 48.6023 72.1312L48.5704 72.3228C48.4824 72.8516 47.9823 73.209 47.4534 73.121L33.6462 70.8228C33.1174 70.7348 32.76 70.2347 32.848 69.7058Z" fill="#AAAAAF"/>
<path d="M32.0508 72.7803L32.0826 72.5888C32.1705 72.0599 32.6705 71.7023 33.1993 71.7902L47.0073 74.0835C47.5362 74.1713 47.8938 74.6713 47.8059 75.2002L47.7741 75.3917C47.6863 75.9206 47.1863 76.2782 46.6574 76.1903L32.8494 73.897C32.3205 73.8091 31.963 73.3092 32.0508 72.7803Z" fill="#AAAAAF"/>
<path d="M31.317 75.8776L31.3489 75.686C31.4369 75.1571 31.937 74.7998 32.4659 74.8878L46.2731 77.1859C46.8019 77.274 47.1593 77.7741 47.0713 78.3029L47.0394 78.4945C46.9514 79.0233 46.4513 79.3807 45.9224 79.2926L32.1153 76.9945C31.5864 76.9065 31.229 76.4064 31.317 75.8776Z" fill="#AAAAAF"/>
<g opacity="0.65">
<path opacity="0.65" d="M45.2834 29.5917C46.1187 29.4021 46.7283 29.1854 47.2791 29.0499C47.7189 28.9229 48.1762 28.8665 48.6337 28.8828C48.8889 28.9048 49.146 28.8762 49.3903 28.7988C49.6345 28.7214 49.8611 28.5966 50.0571 28.4316C50.2531 28.2667 50.4147 28.0647 50.5326 27.8372C50.6506 27.6098 50.7226 27.3614 50.7445 27.1061C50.7665 26.8509 50.7379 26.5938 50.6605 26.3495C50.5831 26.1053 50.4583 25.8787 50.2933 25.6827C50.1283 25.4867 49.9264 25.3251 49.6989 25.2071C49.4715 25.0892 49.2231 25.0172 48.9678 24.9953H48.9181C48.0407 24.9504 47.1619 25.0511 46.3174 25.2933C45.5814 25.4874 44.9267 25.7177 44.4661 25.8215H44.439C43.9509 25.9449 43.5302 26.2538 43.2665 26.6826C43.0027 27.1114 42.9167 27.6262 43.0267 28.1175C43.1367 28.6087 43.4341 29.0377 43.8556 29.313C44.277 29.5883 44.7893 29.6883 45.2834 29.5917Z" fill="white"/>
<path opacity="0.65" d="M37.26 40.1346C37.457 38.528 37.9033 36.962 38.5829 35.493C39.2873 34.0538 40.2378 32.7489 41.3914 31.637C41.7506 31.2855 41.9556 30.8057 41.9611 30.3032C41.9666 29.8006 41.7722 29.3164 41.4208 28.9572C41.0693 28.5979 40.5895 28.393 40.0869 28.3875C39.5844 28.382 39.1002 28.5764 38.741 28.9278C37.2639 30.3339 36.0418 31.9853 35.1288 33.8088C34.2637 35.6323 33.6864 37.5789 33.4176 39.5792C33.353 40.0821 33.4886 40.5903 33.7952 40.9941C34.1018 41.3979 34.5548 41.665 35.0566 41.7379C35.5584 41.8108 36.0687 41.6835 36.4775 41.3836C36.8863 41.0837 37.1608 40.6351 37.2419 40.1346H37.26Z" fill="white"/>
</g>
<path opacity="0.12" d="M53.2708 65.8894C58.4045 62.214 65.1457 56.859 67.9271 47.1197C70.5911 37.8003 68.9746 25.3022 57.339 21.4824L57.068 21.3966C68.4689 44.8756 63.8138 51.1427 53.2708 65.8894Z" fill="#E84E19"/>
<path d="M74.0902 50.3752L95.5374 52.2806C95.7045 52.2997 95.8723 52.2518 96.0039 52.1472C96.1356 52.0426 96.2204 51.89 96.2395 51.723C96.2587 51.5559 96.2107 51.3881 96.1061 51.2564C96.0016 51.1248 95.849 51.04 95.6819 51.0209L74.3611 48.0318C74.0603 48.0071 73.7614 48.0983 73.5256 48.2868C73.2898 48.4753 73.135 48.7468 73.0928 49.0457C73.0507 49.3446 73.1245 49.6484 73.299 49.8947C73.4735 50.141 73.7356 50.3113 74.0315 50.3707L74.0902 50.3752Z" fill="white"/>
<path d="M75.6073 34.6487L95.8038 29.3614C95.9307 29.3274 96.0391 29.245 96.1058 29.1318C96.1725 29.0187 96.1922 28.8839 96.1605 28.7564C96.1294 28.6342 96.0526 28.5286 95.9459 28.4614C95.8392 28.3941 95.7107 28.3704 95.5871 28.3952L75.0835 32.3505C74.7764 32.4104 74.5056 32.5898 74.3307 32.8493C74.1559 33.1089 74.0913 33.4272 74.1512 33.7344C74.211 34.0416 74.3905 34.3123 74.65 34.4872C74.9096 34.6621 75.2279 34.7267 75.535 34.6668L75.6073 34.6487Z" fill="white"/>
<path d="M69.6563 21.4914L79.6711 10.542C79.7573 10.4564 79.806 10.34 79.8064 10.2185C79.8068 10.097 79.759 9.98032 79.6733 9.8941C79.5877 9.80788 79.4714 9.75922 79.3499 9.75879C79.2283 9.75837 79.1116 9.80624 79.0254 9.89186L67.9948 19.8253C67.7805 20.0395 67.6565 20.3278 67.6485 20.6307C67.6405 20.9336 67.749 21.228 67.9516 21.4533C68.1543 21.6785 68.4357 21.8174 68.7378 21.8413C69.0398 21.8652 69.3395 21.7723 69.5751 21.5817C69.6061 21.5554 69.6334 21.525 69.6563 21.4914Z" fill="white"/>
<path d="M57.3749 15.098L59.3886 0.960875C59.3981 0.893107 59.3939 0.824116 59.3761 0.75803C59.3584 0.691943 59.3275 0.630105 59.2854 0.576184C59.2433 0.522263 59.1907 0.477366 59.1309 0.444165C59.0711 0.410964 59.0052 0.39013 58.9371 0.382916C58.8111 0.365915 58.6832 0.39619 58.5781 0.467893C58.4731 0.539595 58.3983 0.647653 58.3682 0.77123L55.0405 14.6555C54.9837 14.9542 55.0441 15.2633 55.2091 15.5187C55.3742 15.7741 55.6312 15.9562 55.9269 16.027C56.2226 16.0979 56.5342 16.0522 56.7971 15.8994C57.06 15.7465 57.254 15.4984 57.3388 15.2063C57.3527 15.1709 57.3648 15.1347 57.3749 15.098Z" fill="white"/>
<path d="M45.4232 14.4115L42.5516 0.414338C42.5318 0.286205 42.462 0.171166 42.3574 0.0945342C42.2528 0.017902 42.1221 -0.014046 41.994 0.00571282C41.8658 0.0254717 41.7508 0.0953291 41.6741 0.199904C41.5975 0.30448 41.5656 0.435214 41.5853 0.563347L43.0889 14.7817C43.1218 15.0931 43.2771 15.3786 43.5205 15.5755C43.764 15.7723 44.0756 15.8644 44.387 15.8315C44.6983 15.7986 44.9839 15.6433 45.1807 15.3998C45.3776 15.1564 45.4697 14.8447 45.4368 14.5334C45.4349 14.4925 45.4304 14.4518 45.4232 14.4115Z" fill="white"/>
<path d="M32.5278 19.771L20.2555 8.82613C20.1675 8.74051 20.049 8.69336 19.9263 8.69505C19.8035 8.69674 19.6864 8.74714 19.6007 8.83516C19.5151 8.92318 19.468 9.04161 19.4697 9.16439C19.4714 9.28717 19.5218 9.40425 19.6098 9.48987L30.8978 21.4597C31.0039 21.5726 31.1313 21.6636 31.2726 21.7273C31.4139 21.791 31.5663 21.8263 31.7212 21.8312C31.8761 21.836 32.0305 21.8102 32.1754 21.7554C32.3204 21.7006 32.4532 21.6177 32.5662 21.5116C32.6791 21.4055 32.77 21.2781 32.8338 21.1368C32.8975 20.9955 32.9328 20.8431 32.9377 20.6882C32.9425 20.5332 32.9167 20.3789 32.8619 20.2339C32.807 20.0889 32.7242 19.9562 32.6181 19.8432C32.5775 19.8161 32.5503 19.7935 32.5278 19.771Z" fill="white"/>
<path d="M26.9562 32.3911L4.51118 24.2637C4.41162 24.2505 4.31046 24.2708 4.22375 24.3215C4.13704 24.3722 4.06974 24.4503 4.03244 24.5436C3.99514 24.6368 3.99 24.7399 4.01783 24.8364C4.04566 24.9329 4.10482 25.0174 4.18605 25.0764L26.0848 34.5584C26.3683 34.6622 26.6808 34.6538 26.9583 34.5347C27.2357 34.4157 27.4572 34.195 27.5773 33.918C27.6973 33.6409 27.7069 33.3284 27.604 33.0446C27.5011 32.7607 27.2936 32.5269 27.024 32.3911H26.9562Z" fill="white"/>
</g>
<defs>
<filter id="filter0_d_2_32728" x="0.000244141" y="0" width="100.243" height="91.1453" filterUnits="userSpaceOnUse" color-interpolation-filters="sRGB">
<feFlood flood-opacity="0" result="BackgroundImageFix"/>
<feColorMatrix in="SourceAlpha" type="matrix" values="0 0 0 0 0 0 0 0 0 0 0 0 0 0 0 0 0 0 127 0" result="hardAlpha"/>
<feOffset dy="4"/>
<feGaussianBlur stdDeviation="2"/>
<feComposite in2="hardAlpha" operator="out"/>
<feColorMatrix type="matrix" values="0 0 0 0 0 0 0 0 0 0 0 0 0 0 0 0 0 0 0.25 0"/>
<feBlend mode="normal" in2="BackgroundImageFix" result="effect1_dropShadow_2_32728"/>
<feBlend mode="normal" in="SourceGraphic" in2="effect1_dropShadow_2_32728" result="shape"/>
</filter>
</defs>
</svg>
